<svg width="96" height="96" viewBox="0 0 96 96" fill="none" xmlns="http://www.w3.org/2000/svg">
    <path d="M16 16H22.5025C23.7702 16 24.404 16 24.9594 16.1197C26.5528 16.4631 27.9017 17.5163 28.6213 18.9788C28.8722 19.4886 29.0259 20.1035 29.3333 21.3333L30.0597 24.2389C31.2 28.8001 35.2983 32 40 32V32" stroke="#222222" stroke-width="10.6667" stroke-linecap="round"/>
    <path d="M72 68H30.2036C27.1517 68 24.9967 65.01 25.9618 62.1147V62.1147C27.179 58.4631 30.5963 56 34.4455 56H56" stroke="#222222" stroke-width="10.6667" stroke-linecap="round" stroke-linejoin="round"/>
    <path d="M56.3791 56H43.8972C41.1952 56 39.8442 56 38.6818 55.737C35.2851 54.9683 32.4776 52.59 31.161 49.3659C30.7104 48.2625 30.4883 46.9299 30.0441 44.2647C29.5951 41.5709 29.3707 40.2239 29.4918 39.1243C29.8486 35.8843 32.1354 33.1848 35.2726 32.3002C36.3374 32 37.7029 32 40.4339 32H64.7881C70.6294 32 73.5501 32 75.1058 33.5265C75.7212 34.1303 76.181 34.8744 76.4459 35.6948C77.1155 37.769 75.8093 40.3813 73.197 45.606C71.0162 49.9676 69.9258 52.1484 68.1553 53.5945C67.431 54.1861 66.6321 54.6799 65.779 55.0631C63.6937 56 61.2555 56 56.3791 56Z" stroke="#222222" stroke-width="10.6667" stroke-linecap="round"/>
    <circle cx="68" cy="80" r="4" fill="#222222"/>
    <circle cx="36" cy="80" r="4" fill="#222222"/>
</svg>
