<svg width="96" height="96" viewBox="0 0 96 96" fill="none" xmlns="http://www.w3.org/2000/svg">
    <path d="M12 39.4164C12 35.3204 15.3204 32 19.4164 32V32C22.2255 32 24.7936 30.4129 26.0498 27.9003L29.3333 21.3333C30.9676 18.0647 34.3084 16 37.9628 16H58.0372C61.6916 16 65.0324 18.0647 66.6667 21.3333L69.9502 27.9003C71.2064 30.4129 73.7745 32 76.5836 32V32C80.6796 32 84 35.3204 84 39.4164V59.4286C84 64.963 84 67.7302 83.2606 69.9663C81.8077 74.3605 78.3605 77.8077 73.9663 79.2606C71.7302 80 68.963 80 63.4286 80H32.5714C27.037 80 24.2698 80 22.0337 79.2606C17.6395 77.8077 14.1923 74.3605 12.7394 69.9663C12 67.7302 12 64.963 12 59.4286V39.4164Z" stroke="#222222" stroke-width="9.75"/>
    <circle cx="48" cy="52" r="11.125" stroke="#222222" stroke-width="9.75"/>
</svg>
