<svg width="96" height="96" viewBox="0 0 96 96" fill="none" xmlns="http://www.w3.org/2000/svg">
    <path d="M77.3035 23.1109L81.738 20.1478L81.738 20.1478L77.3035 23.1109ZM77.3035 64.8891L81.738 67.8522L81.738 67.8522L77.3035 64.8891ZM72.8891 69.3035L75.8522 73.738L75.8522 73.738L72.8891 69.3035ZM56.0001 71.9946L55.9768 66.6613C53.0404 66.6741 50.6667 69.0581 50.6667 71.9946H56.0001ZM56.0001 71.9999L60.7703 74.385C61.1406 73.6445 61.3334 72.8278 61.3334 71.9999H56.0001ZM52.7703 78.4593L48.0001 76.0742L48.0001 76.0742L52.7703 78.4593ZM43.2298 78.4593L48.0001 76.0742L48.0001 76.0742L43.2298 78.4593ZM40.0001 71.9999H34.6667C34.6667 72.8278 34.8595 73.6445 35.2298 74.385L40.0001 71.9999ZM40.0001 71.9946H45.3334C45.3334 69.0581 42.9597 66.6741 40.0233 66.6613L40.0001 71.9946ZM23.1109 69.3035L20.1478 73.738L20.1478 73.738L23.1109 69.3035ZM18.6965 64.8891L14.262 67.8522L14.262 67.8522L18.6965 64.8891ZM18.6965 23.1109L23.131 26.0739L23.131 26.0739L18.6965 23.1109ZM23.1109 18.6965L26.0739 23.131L26.0739 23.131L23.1109 18.6965ZM72.8891 18.6965L75.8522 14.262L75.8522 14.262L72.8891 18.6965ZM85.3333 44C85.3333 38.4931 85.3398 33.9616 84.9689 30.3156C84.5889 26.5806 83.7694 23.188 81.738 20.1478L72.869 26.0739C73.5341 27.0693 74.0628 28.5035 74.357 31.3952C74.6602 34.376 74.6667 38.2712 74.6667 44H85.3333ZM81.738 67.8522C83.7694 64.812 84.5889 61.4194 84.9689 57.6844C85.3398 54.0384 85.3333 49.5068 85.3333 44H74.6667C74.6667 49.7288 74.6602 53.624 74.357 56.6048C74.0628 59.4965 73.5341 60.9307 72.869 61.9261L81.738 67.8522ZM75.8522 73.738C78.1816 72.1816 80.1816 70.1816 81.738 67.8522L72.869 61.9261C72.0908 63.0908 71.0908 64.0908 69.9261 64.869L75.8522 73.738ZM56.0233 77.3278C60.3133 77.3091 63.9883 77.23 67.0894 76.8014C70.2762 76.3608 73.1971 75.5121 75.8522 73.738L69.9261 64.869C69.0557 65.4506 67.8475 65.9285 65.6288 66.2352C63.3244 66.5537 60.3175 66.6423 55.9768 66.6613L56.0233 77.3278ZM61.3334 71.9999V71.9946H50.6667V71.9999H61.3334ZM57.5406 80.8445L60.7703 74.385L51.2298 69.6147L48.0001 76.0742L57.5406 80.8445ZM38.4595 80.8445C42.3904 88.7063 53.6097 88.7063 57.5406 80.8445L48.0001 76.0742C47.9909 76.0925 47.9846 76.102 47.9826 76.1048C47.9806 76.1077 47.9812 76.1064 47.985 76.1024C47.9887 76.0985 47.9937 76.0937 47.9999 76.0887C48.006 76.0839 48.0119 76.0799 48.0172 76.0768C48.0276 76.0706 48.032 76.07 48.0279 76.0711C48.0259 76.0716 48.0223 76.0724 48.0172 76.0731C48.0121 76.0738 48.0063 76.0742 48.0001 76.0742C47.9938 76.0742 47.988 76.0738 47.9829 76.0731C47.9779 76.0724 47.9742 76.0716 47.9722 76.0711C47.9681 76.07 47.9725 76.0706 47.983 76.0768C47.9882 76.0798 47.9941 76.0839 48.0002 76.0887C48.0064 76.0937 48.0115 76.0985 48.0151 76.1024C48.0189 76.1064 48.0195 76.1077 48.0175 76.1048C48.0156 76.102 48.0092 76.0925 48.0001 76.0742L38.4595 80.8445ZM35.2298 74.385L38.4595 80.8445L48.0001 76.0742L44.7703 69.6147L35.2298 74.385ZM34.6667 71.9946V71.9999H45.3334V71.9946H34.6667ZM20.1478 73.738C22.8029 75.5121 25.7238 76.3609 28.9106 76.8014C32.0118 77.23 35.6867 77.3091 39.9768 77.3278L40.0233 66.6613C35.6825 66.6423 32.6756 66.5537 30.3712 66.2352C28.1525 65.9285 26.9443 65.4506 26.0739 64.869L20.1478 73.738ZM14.262 67.8522C15.8184 70.1816 17.8184 72.1816 20.1478 73.738L26.0739 64.869C24.9092 64.0908 23.9092 63.0908 23.131 61.9261L14.262 67.8522ZM10.6667 44C10.6667 49.5068 10.6602 54.0384 11.0311 57.6844C11.4111 61.4194 12.2306 64.812 14.262 67.8522L23.131 61.9261C22.4659 60.9307 21.9372 59.4965 21.643 56.6048C21.3398 53.624 21.3333 49.7288 21.3333 44H10.6667ZM14.262 20.1478C12.2306 23.188 11.4111 26.5806 11.0311 30.3156C10.6602 33.9616 10.6667 38.4932 10.6667 44H21.3333C21.3333 38.2712 21.3398 34.376 21.643 31.3952C21.9372 28.5035 22.4659 27.0693 23.131 26.0739L14.262 20.1478ZM20.1478 14.262C17.8184 15.8184 15.8184 17.8184 14.262 20.1478L23.131 26.0739C23.9092 24.9092 24.9092 23.9092 26.0739 23.131L20.1478 14.262ZM44 10.6667C38.4932 10.6667 33.9616 10.6602 30.3156 11.0311C26.5806 11.4111 23.188 12.2306 20.1478 14.262L26.0739 23.131C27.0693 22.4659 28.5035 21.9372 31.3952 21.643C34.376 21.3398 38.2712 21.3333 44 21.3333V10.6667ZM52 10.6667H44V21.3333H52V10.6667ZM75.8522 14.262C72.812 12.2306 69.4194 11.4111 65.6844 11.0311C62.0384 10.6602 57.5068 10.6667 52 10.6667V21.3333C57.7288 21.3333 61.624 21.3398 64.6048 21.643C67.4965 21.9372 68.9307 22.4659 69.9261 23.131L75.8522 14.262ZM81.738 20.1478C80.1816 17.8184 78.1816 15.8184 75.8522 14.262L69.9261 23.131C71.0908 23.9092 72.0908 24.9092 72.869 26.0739L81.738 20.1478Z" fill="#33363F"/>
    <circle cx="64" cy="44" r="4" fill="#33363F" stroke="#33363F" stroke-width="5.33333" stroke-linecap="round"/>
    <circle cx="48" cy="44" r="4" fill="#33363F" stroke="#33363F" stroke-width="5.33333" stroke-linecap="round"/>
    <circle cx="32" cy="44" r="4" fill="#33363F" stroke="#33363F" stroke-width="5.33333" stroke-linecap="round"/>
</svg>
