<svg width="96" height="96" viewBox="0 0 96 96" fill="none" xmlns="http://www.w3.org/2000/svg">
    <path d="M28 20.3333H68C71.8937 20.3333 74.3781 20.3425 76.2008 20.5876C77.8988 20.8159 78.3605 21.175 78.5927 21.4073C78.825 21.6395 79.1841 22.1012 79.4124 23.7992C79.6575 25.6219 79.6667 28.1063 79.6667 32V63.6667H16.3333V32C16.3333 28.1063 16.3425 25.6219 16.5876 23.7992C16.8159 22.1012 17.175 21.6395 17.4073 21.4073C17.6395 21.175 18.1012 20.8159 19.7992 20.5876C21.6219 20.3425 24.1063 20.3333 28 20.3333Z" stroke="#33363F" stroke-width="8.66667"/>
    <path d="M81.3333 63.6667H14.6667C10.8007 63.6667 7.66667 66.8007 7.66667 70.6667C7.66667 76.0054 11.9946 80.3333 17.3333 80.3333H78.6667C84.0054 80.3333 88.3333 76.0054 88.3333 70.6667C88.3333 66.8007 85.1993 63.6667 81.3333 63.6667Z" stroke="#33363F" stroke-width="8.66667"/>
</svg>
