<svg width="96" height="96" viewBox="0 0 96 96" fill="none" xmlns="http://www.w3.org/2000/svg">
    <path fill-rule="evenodd" clip-rule="evenodd" d="M40.0001 6.00098C32.2681 6.00098 26.0001 12.269 26.0001 20.001L26.0001 20.0281C22.9133 20.1006 21.0247 20.3676 19.5556 21.3492C18.682 21.9329 17.932 22.6829 17.3484 23.5564C16.0001 25.5742 16.0001 28.3831 16.0001 34.001V72.001C16.0001 79.5434 16.0001 83.3147 18.3433 85.6578C20.6864 88.001 24.4576 88.001 32.0001 88.001H64.0001C71.5426 88.001 75.3138 88.001 77.657 85.6578C80.0001 83.3147 80.0001 79.5434 80.0001 72.001V34.001C80.0001 28.3831 80.0001 25.5742 78.6519 23.5564C78.0682 22.6829 77.3182 21.9329 76.4447 21.3492C74.9755 20.3676 73.0869 20.1006 70.0001 20.0281L70.0001 20.001C70.0001 12.269 63.7321 6.00098 56.0001 6.00098H40.0001ZM39.3334 20.0007C39.3334 17.4234 41.4228 15.334 44.0001 15.334H52.0001C54.5774 15.334 56.6668 17.4234 56.6668 20.0007C56.6668 22.578 54.5774 24.6674 52.0001 24.6674H44.0001C41.4228 24.6674 39.3334 22.578 39.3334 20.0007ZM36.0001 43.3338C33.4227 43.3338 31.3334 45.4231 31.3334 48.0004C31.3334 50.5777 33.4227 52.6671 36.0001 52.6671H60.0001C62.5774 52.6671 64.6667 50.5778 64.6667 48.0004C64.6667 45.4231 62.5774 43.3338 60.0001 43.3338L36.0001 43.3338ZM36.0001 59.3338C33.4227 59.3338 31.3334 61.4231 31.3334 64.0004C31.3334 66.5777 33.4227 68.6671 36.0001 68.6671L52.0001 68.6671C54.5774 68.6671 56.6667 66.5778 56.6667 64.0004C56.6667 61.4231 54.5774 59.3338 52.0001 59.3338L36.0001 59.3338Z" fill="#222222"/>
</svg>
