<svg width="160" height="32" viewBox="0 0 160 32" fill="none" xmlns="http://www.w3.org/2000/svg">
<path d="M144.097 7.81299C143.53 7.25065 142.762 6.93374 141.96 6.93152V10.6748C141.96 11.6428 141.984 12.6112 142.033 13.5316C141.08 12.5631 139.64 12.0305 138.102 12.0305C134.587 12.0305 131.681 14.742 131.681 18.6889C131.681 22.5872 134.586 25.3227 138.101 25.3227C139.786 25.3227 141.349 24.6929 142.276 23.5321L142.301 25.0812H144.986V9.94069C144.986 9.14263 144.666 8.37728 144.097 7.81299ZM138.493 22.5611C136.32 22.5611 134.709 20.9875 134.709 18.6874C134.709 16.3627 136.32 14.789 138.493 14.789C140.543 14.789 142.179 16.2179 142.179 18.6874C142.179 21.1348 140.546 22.5611 138.493 22.5611Z" fill="#101010"/>
<path d="M64.6188 12.2726H63.0565C60.2977 12.2726 58.7839 13.6027 58.7839 16.6062V25.0807H61.8115V16.5341C61.8115 15.4199 62.2506 14.9845 63.3491 14.9845H64.6193L64.6188 12.2726Z" fill="#101010"/>
<path d="M49.4884 17.7194H53.9989C53.7064 20.5526 51.5579 22.4409 48.5551 22.4409C45.1374 22.4409 42.5741 19.9229 42.5741 16.2184C42.5741 12.5621 45.0641 9.97191 48.5793 9.97191C49.4903 9.96707 50.3907 10.1646 51.2145 10.5501C52.0384 10.9356 52.7647 11.4991 53.34 12.1994L55.635 10.02C53.8039 7.93834 51.3376 6.96887 48.5793 6.96887C43.3062 6.96887 39.3024 10.77 39.3024 16.1939C39.3024 21.6178 43.3305 25.4199 48.5551 25.4199C53.7549 25.4199 57.3439 21.7876 57.3439 16.1709V14.9354H49.4884V17.7194Z" fill="#101010"/>
<path d="M71.381 11.982C67.5969 11.982 64.6188 14.7906 64.6188 18.6889C64.6188 22.5872 67.5969 25.4199 71.381 25.4199C75.165 25.4199 78.1436 22.5872 78.1436 18.6889C78.1436 14.7906 75.165 11.982 71.381 11.982ZM71.381 22.5872C69.2573 22.5872 67.6459 20.989 67.6459 18.6889C67.6459 16.3888 69.2573 14.7906 71.381 14.7906C73.5046 14.7906 75.116 16.3888 75.116 18.6889C75.116 20.989 73.5051 22.5872 71.381 22.5872Z" fill="#101010"/>
<path d="M153.239 11.982C149.454 11.982 146.476 14.7906 146.476 18.6889C146.476 22.5872 149.453 25.4199 153.239 25.4199C157.024 25.4199 159.998 22.5872 159.998 18.6889C159.998 14.7906 157.021 11.982 153.239 11.982ZM153.239 22.5872C151.115 22.5872 149.503 20.989 149.503 18.6889C149.503 16.3888 151.115 14.7906 153.239 14.7906C155.363 14.7906 156.974 16.3888 156.974 18.6889C156.974 20.989 155.362 22.5872 153.239 22.5872Z" fill="#101010"/>
<path d="M124.087 11.982C120.303 11.982 117.325 14.7906 117.325 18.6889C117.325 22.5872 120.304 25.4199 124.087 25.4199C127.87 25.4199 130.85 22.5872 130.85 18.6889C130.85 14.7906 127.872 11.982 124.087 11.982ZM124.087 22.5872C121.963 22.5872 120.352 20.989 120.352 18.6889C120.352 16.3888 121.963 14.7906 124.087 14.7906C126.212 14.7906 127.822 16.3888 127.822 18.6889C127.822 20.989 126.213 22.5872 124.087 22.5872Z" fill="#101010"/>
<path d="M92.1322 20.8683L89.3733 12.2731H86.566L83.7339 21.0857L81.0974 12.2726H77.9238L82.0251 25.0807H84.9795L87.9085 16.4855L90.8381 25.0807H93.6212L97.9186 12.2726H94.8177L92.1322 20.8683Z" fill="#101010"/>
<path d="M111.051 11.9814C109.193 11.9814 107.852 12.7079 107.12 13.8457C106.388 12.7079 105.045 11.9814 103.214 11.9814C100.139 11.9814 98.2839 14.016 98.2839 17.4555V25.0807H101.311V17.3813C101.311 15.759 102.068 14.7906 103.435 14.7906C104.801 14.7906 105.632 15.759 105.632 17.478V25.0807H108.66V17.478C108.66 15.759 109.466 14.7906 110.857 14.7906C112.199 14.7906 112.981 15.759 112.981 17.3813V25.0807H116.008V17.4539C116.007 14.0176 114.129 11.9814 111.051 11.9814Z" fill="#101010"/>
<path d="M24.7525 2.46932C22.1753 0.851626 19.1867 -0.00492456 16.1365 -0.000132591C7.22338 -0.000132591 0 7.16214 0 15.9999H17.2329C17.2329 15.8976 17.2343 15.794 17.2371 15.6893C17.3413 10.1232 20.3147 5.25288 24.7525 2.46932Z" fill="#3867F6"/>
<path d="M17.2329 16.3049C17.2305 16.2026 17.2291 16.1011 17.2288 16.0005H0C0 24.8367 7.22338 32 16.1365 32C19.1869 32.0049 22.1756 31.1483 24.753 29.5305C20.3132 26.7459 17.3397 21.8735 17.2329 16.3049Z" fill="#101010"/>
<path d="M17.2329 16C17.2329 16.1023 17.2329 16.2046 17.2366 16.3044C17.3397 21.849 20.29 26.703 24.6973 29.4937C29.2279 26.6764 32.2473 21.6914 32.2725 16H17.2329Z" fill="#D2FD51"/>
</svg>
