<svg width="116" height="103" viewBox="0 0 116 103" fill="none" xmlns="http://www.w3.org/2000/svg">
<g opacity="0.15">
<path d="M81.9607 10.0177C67.1139 -1.49559 45.9569 -3.43529 28.4643 6.74221C5.56474 20.0655 -2.38676 49.1083 10.7047 71.6094C16.8661 82.1993 26.5918 89.4543 37.553 92.7773C52.405 104.291 73.5568 106.23 91.0525 96.0503C113.953 82.7273 121.904 53.6846 108.813 31.1835C102.651 20.5934 92.9255 13.3386 81.9641 10.0157L81.9607 10.0177ZM27.849 82.5283C22.8039 79.1333 18.4396 74.5873 15.1871 68.9971C3.50984 48.9343 10.6045 23.0311 31.028 11.1484C42.6853 4.36611 56.1667 3.62071 67.7626 7.95821C59.574 8.00331 51.2611 10.1332 43.64 14.5673C20.7404 27.8906 12.7889 56.9334 25.8803 79.4343C26.5009 80.5013 27.1588 81.5323 27.8457 82.5303L27.849 82.5283ZM40.0413 88.1423C36.2535 85.0683 32.9549 81.2773 30.3628 76.8222C18.6869 56.7542 25.7783 30.853 46.2018 18.9703C56.7139 12.8542 68.709 11.6465 79.4686 14.6458C83.2565 17.7199 86.5555 21.5108 89.1475 25.9661C100.824 46.0341 93.7315 71.9353 73.3082 83.8183C62.796 89.9343 50.8009 91.1413 40.0413 88.1423ZM88.4855 91.6463C76.8284 98.4283 63.347 99.1743 51.7511 94.8363C59.9397 94.7913 68.2526 92.6613 75.8737 88.2273C98.7735 74.9041 106.725 45.8614 93.6335 23.3603C93.0125 22.2938 92.3545 21.2621 91.6685 20.2648C96.7135 23.6595 101.078 28.2056 104.33 33.7958C116.006 53.8638 108.915 79.7653 88.4905 91.6473L88.4855 91.6463Z" fill="#4F4F4F"/>
</g>
<g clip-path="url(#clip0_59_122)">
<path d="M2.16992 78.9322C7.0508 78.9322 7.0508 67.8916 11.9325 67.8916C16.8142 67.8916 16.8117 78.9322 21.691 78.9322C26.5702 78.9322 26.5735 67.8916 31.456 67.8916C36.3386 67.8916 36.3377 78.9322 41.2203 78.9322" stroke="#3FE8BE" stroke-width="2.8" stroke-linecap="round" stroke-linejoin="round"/>
</g>
<defs>
<clipPath id="clip0_59_122">
<rect width="43" height="15" fill="white" transform="translate(0 66)"/>
</clipPath>
</defs>
</svg>
